<svg aria-hidden="true" style="position:absolute;width:0;height:0;overflow:hidden"
  xmlns="http://www.w3.org/2000/svg">
  <defs>
    <symbol id="icon-currency" viewBox="0 0 13 24">
      <path
        d="M6.98535 10.6312C4.16085 9.89712 3.25254 9.13812 3.25254 7.95606C3.25254 6.59981 4.50925 5.65417 6.61206 5.65417C8.82686 5.65417 9.64808 6.71179 9.72274 8.26713H12.4726C12.3855 6.12699 11.079 4.16104 8.47847 3.52646V0.801514H4.74566V3.48914C2.33178 4.01173 0.390716 5.57951 0.390716 7.98095C0.390716 10.8552 2.76727 12.2861 6.23878 13.1198C9.34946 13.8663 9.97159 14.9613 9.97159 16.1185C9.97159 16.977 9.3619 18.3457 6.61206 18.3457C4.04887 18.3457 3.04101 17.201 2.90414 15.7327H0.166748C0.31606 18.4577 2.35666 19.9882 4.74566 20.4983V23.1984H8.47847V20.5232C10.9048 20.0628 12.8334 18.6568 12.8334 16.106C12.8334 12.5723 9.80984 11.3654 6.98535 10.6312Z" />
    </symbol>
    <symbol id="icon-statistics" viewBox="0 0 27 16">
      <path
        d="M26.3334 3.11119C26.3334 4.45564 25.2834 5.55564 24.0001 5.55564C23.7901 5.55564 23.5918 5.53119 23.4051 5.47008L19.2518 9.80897C19.3101 10.0045 19.3334 10.2245 19.3334 10.4445C19.3334 11.789 18.2834 12.889 17.0001 12.889C15.7168 12.889 14.6668 11.789 14.6668 10.4445C14.6668 10.2245 14.6901 10.0045 14.7484 9.80897L11.7734 6.6923C11.5868 6.75342 11.3767 6.77786 11.1667 6.77786C10.9567 6.77786 10.7467 6.75342 10.5601 6.6923L5.25175 12.2656C5.31008 12.4612 5.33342 12.669 5.33342 12.889C5.33342 14.2334 4.28342 15.3334 3.00008 15.3334C1.71675 15.3334 0.666748 14.2334 0.666748 12.889C0.666748 11.5445 1.71675 10.4445 3.00008 10.4445C3.21008 10.4445 3.40842 10.469 3.59508 10.5301L8.91508 4.96897C8.85675 4.77342 8.83342 4.55342 8.83342 4.33342C8.83342 2.98897 9.88342 1.88897 11.1667 1.88897C12.4501 1.88897 13.5001 2.98897 13.5001 4.33342C13.5001 4.55342 13.4768 4.77342 13.4184 4.96897L16.3934 8.08564C16.5801 8.02453 16.7901 8.00008 17.0001 8.00008C17.2101 8.00008 17.4201 8.02453 17.6068 8.08564L21.7484 3.73453C21.6901 3.53897 21.6668 3.33119 21.6668 3.11119C21.6668 1.76675 22.7168 0.666748 24.0001 0.666748C25.2834 0.666748 26.3334 1.76675 26.3334 3.11119Z" />
    </symbol>
    <symbol id="icon-home" viewBox="0 0 35 32">
      <path d="M34.909 16.94h-5.236V32h-8.727V20.705h-6.983V32H5.236V16.94H0L17.455 0 34.91 16.94z" />
    </symbol>
    <symbol id="icon-close" viewBox="0 0 32 32">
      <path stroke-width="1.778" d="m1.778 1.778 28.444 28.444M1.778 30.222 30.222 1.778" />
    </symbol>
    <symbol id="icon-edit" viewBox="0 0 32 32">
      <path stroke-linejoin="round" stroke-linecap="round" stroke-width="2.743"
        d="m24 13.334-5.333-5.333M3.333 28.667l4.513-.502c.551-.061.827-.092 1.085-.175.229-.074.446-.178.647-.311.226-.149.422-.345.814-.737L28 9.334a3.77 3.77 0 1 0-5.333-5.333L5.059 21.609c-.392.392-.588.588-.737.814a2.68 2.68 0 0 0-.311.647c-.083.258-.114.533-.175 1.085l-.501 4.513z" />
    </symbol>
    <symbol id="icon-exit" viewBox="0 0 32 32">
      <path
        d="M20.051 23.237h2.499v4.997a3.752 3.752 0 0 1-3.748 3.748H3.748A3.752 3.752 0 0 1 0 28.234V3.748A3.752 3.752 0 0 1 3.748 0h15.054a3.752 3.752 0 0 1 3.748 3.748v4.997h-2.499V3.748a1.25 1.25 0 0 0-1.249-1.249H3.748a1.25 1.25 0 0 0-1.249 1.249v24.486a1.25 1.25 0 0 0 1.249 1.249h15.054a1.25 1.25 0 0 0 1.249-1.249v-4.997zm6.06-13.135-1.767 1.767 2.873 2.874H11.056v2.499h16.161l-2.873 2.873 1.767 1.767L32 15.993l-5.889-5.89z" />
    </symbol>
    <symbol id="icon-minus" viewBox="0 0 320 32">
      <path stroke-width="32" d="M0 16h320" />
    </symbol>
    <symbol id="icon-plus" viewBox="0 0 32 32">
      <path stroke-width="3.2" d="M16 0v32M0 16h32" />
    </symbol>
    <symbol id="icon-arrow-up" viewBox="0 0 32 32">
      <path stroke-width="1.333" d="M7.529 18.667 16 10.196l8.471 8.471" />
    </symbol>
    <symbol id="icon-arrow-down" viewBox="0 0 32 32">
      <path stroke-width="1.333" d="m24.47 10.196-8.471 8.471-8.471-8.471" />
    </symbol>
    <symbol id="icon-calendar" viewBox="0 0 32 32">
      <path
        d="M12 14.667H9.333v2.667H12v-2.667zm5.333 0h-2.667v2.667h2.667v-2.667zm5.334 0H20v2.667h2.667v-2.667zm2.666-9.334H24V2.666h-2.667v2.667H10.666V2.666H7.999v2.667H6.666c-1.48 0-2.653 1.2-2.653 2.667L4 26.667a2.666 2.666 0 0 0 2.667 2.667h18.667c1.467 0 2.667-1.2 2.667-2.667V8c0-1.467-1.2-2.667-2.667-2.667zm0 21.334H6.666V12h18.667v14.667z" />
    </symbol>
    <symbol id="icon-user" viewBox="0 0 32 32">
      <path
        d="M16 20c-4.227 0-7.986 2.041-10.379 5.208-.515.682-.773 1.022-.764 1.483.006.356.23.805.51 1.025.362.284.865.284 1.869.284h17.527c1.005 0 1.507 0 1.869-.284.28-.22.503-.669.51-1.025.008-.461-.249-.801-.764-1.483C23.985 22.041 20.226 20 15.999 20zM16 16a6 6 0 1 0 0-12 6 6 0 0 0 0 12z" />
    </symbol>
    <symbol id="icon-email" viewBox="0 0 32 32">
      <path
        d="M26.667 5.333H5.334A2.663 2.663 0 0 0 2.681 8l-.013 16c0 1.467 1.2 2.667 2.667 2.667h21.333c1.467 0 2.667-1.2 2.667-2.667V8c0-1.467-1.2-2.667-2.667-2.667zm0 5.334L16 17.334 5.333 10.667V8L16 14.667 26.667 8v2.667z" />
    </symbol>
    <symbol id="icon-lock" viewBox="0 0 32 32">
      <path
        d="M24 10.667h-1.333V8c0-3.68-2.987-6.667-6.667-6.667S9.333 4.32 9.333 8v2.667H8a2.675 2.675 0 0 0-2.667 2.667v13.333c0 1.467 1.2 2.667 2.667 2.667h16c1.467 0 2.667-1.2 2.667-2.667V13.334c0-1.467-1.2-2.667-2.667-2.667zm-8 12c-1.467 0-2.667-1.2-2.667-2.667s1.2-2.667 2.667-2.667c1.467 0 2.667 1.2 2.667 2.667s-1.2 2.667-2.667 2.667zm4.133-12h-8.267V8c0-2.28 1.853-4.133 4.133-4.133S20.132 5.72 20.132 8v2.667z" />
    </symbol>
  </defs>
</svg>