<svg aria-hidden="true" style="position:absolute;width:0;height:0;overflow:hidden" xmlns="http://www.w3.org/2000/svg">
  <defs>
    <symbol id="icon-statistics" viewBox="0 0 32 32">
      <path d="M26.947 0A5.053 5.053 0 0 1 32 5.053v21.895a5.053 5.053 0 0 1-5.053 5.053H5.052a5.053 5.053 0 0 1-5.053-5.053V5.053A5.053 5.053 0 0 1 5.052 0h21.895zM14.522 9.374c-2.033.44-3.667 1.761-3.667 3.783 0 2.42 2.001 3.625 4.924 4.327 2.62.629 3.144 1.551 3.144 2.525 0 .723-.514 1.875-2.829 1.875-2.158 0-3.007-.964-3.123-2.2h-2.305c.126 2.294 1.844 3.584 3.855 4.013v2.273h3.144v-2.252c2.043-.388 3.667-1.572 3.667-3.72 0-2.976-2.546-3.992-4.924-4.61s-3.144-1.258-3.144-2.253c0-1.142 1.059-1.938 2.83-1.938 1.865 0 2.556.891 2.619 2.201h2.316c-.073-1.802-1.174-3.458-3.364-3.993V7.111h-3.144v2.263z"/>
    </symbol>
    <symbol id="icon-timeline" viewBox="0 0 32 32">
      <path d="M28.444 0A3.556 3.556 0 0 1 32 3.556v24.889a3.556 3.556 0 0 1-3.556 3.556H3.555a3.556 3.556 0 0 1-3.556-3.556V3.556A3.556 3.556 0 0 1 3.555 0h24.889zm-2.262 8.889c-1.244 0-2.263 1.066-2.264 2.37 0 .213.023.415.08.604l-4.016 4.221c-.181-.059-.385-.083-.588-.083s-.408.024-.589.083l-2.885-3.023c.057-.19.08-.403.08-.616 0-1.304-1.018-2.37-2.262-2.37s-2.264 1.066-2.264 2.37c0 .213.023.427.08.616l-5.158 5.392a1.858 1.858 0 0 0-.578-.083c-1.244 0-2.262 1.068-2.262 2.372s1.018 2.369 2.262 2.37c1.244 0 2.264-1.066 2.264-2.37a2.12 2.12 0 0 0-.08-.604l5.148-5.404c.181.059.385.082.589.082s.408-.022.589-.082l2.884 3.021a2.204 2.204 0 0 0-.078.616c0 1.304 1.018 2.372 2.262 2.372s2.262-1.068 2.262-2.372c0-.213-.021-.427-.078-.616l4.026-4.207c.181.059.375.083.578.083 1.244 0 2.262-1.068 2.262-2.372s-1.018-2.37-2.262-2.37z"/>
    </symbol>
    <symbol id="icon-home" viewBox="0 0 35 32">
      <path d="M34.909 16.94h-5.236V32h-8.727V20.705h-6.983V32H5.236V16.94H0L17.455 0 34.91 16.94z"/>
    </symbol>
    <symbol id="icon-close" viewBox="0 0 32 32">
      <path stroke-width="1.778" d="m1.778 1.778 28.444 28.444M1.778 30.222 30.222 1.778"/>
    </symbol>
    <symbol id="icon-edit" viewBox="0 0 32 32">
      <path stroke-linejoin="round" stroke-linecap="round" stroke-width="2.743" d="m24 13.334-5.333-5.333M3.333 28.667l4.513-.502c.551-.061.827-.092 1.085-.175.229-.074.446-.178.647-.311.226-.149.422-.345.814-.737L28 9.334a3.77 3.77 0 1 0-5.333-5.333L5.059 21.609c-.392.392-.588.588-.737.814a2.68 2.68 0 0 0-.311.647c-.083.258-.114.533-.175 1.085l-.501 4.513z"/>
    </symbol>
    <symbol id="icon-exit" viewBox="0 0 32 32">
      <path d="M20.051 23.237h2.499v4.997a3.752 3.752 0 0 1-3.748 3.748H3.748A3.752 3.752 0 0 1 0 28.234V3.748A3.752 3.752 0 0 1 3.748 0h15.054a3.752 3.752 0 0 1 3.748 3.748v4.997h-2.499V3.748a1.25 1.25 0 0 0-1.249-1.249H3.748a1.25 1.25 0 0 0-1.249 1.249v24.486a1.25 1.25 0 0 0 1.249 1.249h15.054a1.25 1.25 0 0 0 1.249-1.249v-4.997zm6.06-13.135-1.767 1.767 2.873 2.874H11.056v2.499h16.161l-2.873 2.873 1.767 1.767L32 15.993l-5.889-5.89z"/>
    </symbol>
    <symbol id="icon-minus" viewBox="0 0 320 32">
      <path stroke-width="32" d="M0 16h320"/>
    </symbol>
    <symbol id="icon-plus" viewBox="0 0 32 32">
      <path stroke-width="3.2" d="M16 0v32M0 16h32"/>
    </symbol>
    <symbol id="icon-arrow-up" viewBox="0 0 32 32">
      <path stroke-width="1.333" d="M7.529 18.667 16 10.196l8.471 8.471"/>
    </symbol>
    <symbol id="icon-arrow-down" viewBox="0 0 32 32">
      <path stroke-width="1.333" d="m24.47 10.196-8.471 8.471-8.471-8.471"/>
    </symbol>
    <symbol id="icon-calendar" viewBox="0 0 32 32">
      <path d="M12 14.667H9.333v2.667H12v-2.667zm5.333 0h-2.667v2.667h2.667v-2.667zm5.334 0H20v2.667h2.667v-2.667zm2.666-9.334H24V2.666h-2.667v2.667H10.666V2.666H7.999v2.667H6.666c-1.48 0-2.653 1.2-2.653 2.667L4 26.667a2.666 2.666 0 0 0 2.667 2.667h18.667c1.467 0 2.667-1.2 2.667-2.667V8c0-1.467-1.2-2.667-2.667-2.667zm0 21.334H6.666V12h18.667v14.667z"/>
    </symbol>
    <symbol id="icon-user" viewBox="0 0 32 32">
      <path d="M16 20c-4.227 0-7.986 2.041-10.379 5.208-.515.682-.773 1.022-.764 1.483.006.356.23.805.51 1.025.362.284.865.284 1.869.284h17.527c1.005 0 1.507 0 1.869-.284.28-.22.503-.669.51-1.025.008-.461-.249-.801-.764-1.483C23.985 22.041 20.226 20 15.999 20zM16 16a6 6 0 1 0 0-12 6 6 0 0 0 0 12z"/>
    </symbol>
    <symbol id="icon-email" viewBox="0 0 32 32">
      <path d="M26.667 5.333H5.334A2.663 2.663 0 0 0 2.681 8l-.013 16c0 1.467 1.2 2.667 2.667 2.667h21.333c1.467 0 2.667-1.2 2.667-2.667V8c0-1.467-1.2-2.667-2.667-2.667zm0 5.334L16 17.334 5.333 10.667V8L16 14.667 26.667 8v2.667z"/>
    </symbol>
    <symbol id="icon-lock" viewBox="0 0 32 32">
      <path d="M24 10.667h-1.333V8c0-3.68-2.987-6.667-6.667-6.667S9.333 4.32 9.333 8v2.667H8a2.675 2.675 0 0 0-2.667 2.667v13.333c0 1.467 1.2 2.667 2.667 2.667h16c1.467 0 2.667-1.2 2.667-2.667V13.334c0-1.467-1.2-2.667-2.667-2.667zm-8 12c-1.467 0-2.667-1.2-2.667-2.667s1.2-2.667 2.667-2.667c1.467 0 2.667 1.2 2.667 2.667s-1.2 2.667-2.667 2.667zm4.133-12h-8.267V8c0-2.28 1.853-4.133 4.133-4.133S20.132 5.72 20.132 8v2.667z"/>
    </symbol>
  </defs>
</svg>