<svg aria-hidden="true" style="position:absolute;width:0;height:0;overflow:hidden"
  xmlns="http://www.w3.org/2000/svg">
  <defs>
    <symbol id="icon-logo" viewBox="0 0 32 32">
      <path fill="#508f8c" style="fill:var(--color1, #508f8c)"
        d="M24 13.333H8c-1.12 0-2.067.693-2.467 1.667l14.813 3.627c.413.107.853 0 1.173-.267l4.653-3.893c-.493-.68-1.28-1.133-2.173-1.133zM24 8H8a2.675 2.675 0 0 0-2.667 2.667v.733A5.333 5.333 0 0 1 8 10.667h16c.973 0 1.88.28 2.667.733v-.733C26.667 9.2 25.467 8 24 8z" />
      <path fill="#081222" style="fill:var(--color2, #081222)"
        d="M24 5.333H8a5.332 5.332 0 0 0-5.333 5.333v10.667A5.332 5.332 0 0 0 8 26.666h16a5.332 5.332 0 0 0 5.333-5.333V10.666A5.332 5.332 0 0 0 24 5.333zM21.52 18.36c-.32.267-.76.373-1.173.267L5.534 15a2.67 2.67 0 0 1 2.467-1.667h16c.893 0 1.68.453 2.173 1.12l-4.653 3.907zm5.147-6.96A5.333 5.333 0 0 0 24 10.667H8c-.973 0-1.88.28-2.667.733v-.733C5.333 9.2 6.533 8 8 8h16c1.467 0 2.667 1.2 2.667 2.667v.733z" />
    </symbol>
    <symbol id="icon-statistics" viewBox="0 0 32 32">
      <path
        d="M26.947 0A5.053 5.053 0 0 1 32 5.053v21.895a5.053 5.053 0 0 1-5.053 5.053H5.052a5.053 5.053 0 0 1-5.053-5.053V5.053A5.053 5.053 0 0 1 5.052 0h21.895zM14.522 9.374c-2.033.44-3.667 1.761-3.667 3.783 0 2.42 2.001 3.625 4.924 4.327 2.62.629 3.144 1.551 3.144 2.525 0 .723-.514 1.875-2.829 1.875-2.158 0-3.007-.964-3.123-2.2h-2.305c.126 2.294 1.844 3.584 3.855 4.013v2.273h3.144v-2.252c2.043-.388 3.667-1.572 3.667-3.72 0-2.976-2.546-3.992-4.924-4.61s-3.144-1.258-3.144-2.253c0-1.142 1.059-1.938 2.83-1.938 1.865 0 2.556.891 2.619 2.201h2.316c-.073-1.802-1.174-3.458-3.364-3.993V7.111h-3.144v2.263z" />
    </symbol>
    <symbol id="icon-timeline" viewBox="0 0 32 32">
      <path
        d="M28.444 0A3.556 3.556 0 0 1 32 3.556v24.889a3.556 3.556 0 0 1-3.556 3.556H3.555a3.556 3.556 0 0 1-3.556-3.556V3.556A3.556 3.556 0 0 1 3.555 0h24.889zm-2.262 8.889c-1.244 0-2.263 1.066-2.264 2.37 0 .213.023.415.08.604l-4.016 4.221c-.181-.059-.385-.083-.588-.083s-.408.024-.589.083l-2.885-3.023c.057-.19.08-.403.08-.616 0-1.304-1.018-2.37-2.262-2.37s-2.264 1.066-2.264 2.37c0 .213.023.427.08.616l-5.158 5.392a1.858 1.858 0 0 0-.578-.083c-1.244 0-2.262 1.068-2.262 2.372s1.018 2.369 2.262 2.37c1.244 0 2.264-1.066 2.264-2.37a2.12 2.12 0 0 0-.08-.604l5.148-5.404c.181.059.385.082.589.082s.408-.022.589-.082l2.884 3.021a2.204 2.204 0 0 0-.078.616c0 1.304 1.018 2.372 2.262 2.372s2.262-1.068 2.262-2.372c0-.213-.021-.427-.078-.616l4.026-4.207c.181.059.375.083.578.083 1.244 0 2.262-1.068 2.262-2.372s-1.018-2.37-2.262-2.37z" />
    </symbol>
    <symbol id="icon-home" viewBox="0 0 35 32">
      <path d="M34.909 16.94h-5.236V32h-8.727V20.705h-6.983V32H5.236V16.94H0L17.455 0 34.91 16.94z" />
    </symbol>
    <symbol id="icon-close" viewBox="0 0 32 32">
      <path stroke-width="1.778" d="m1.778 1.778 28.444 28.444M1.778 30.222 30.222 1.778" />
    </symbol>
    <symbol id="icon-edit" viewBox="0 0 32 32">
      <path stroke-linejoin="round" stroke-linecap="round" stroke-width="2.743"
        d="m24 13.334-5.333-5.333M3.333 28.667l4.513-.502c.551-.061.827-.092 1.085-.175.229-.074.446-.178.647-.311.226-.149.422-.345.814-.737L28 9.334a3.77 3.77 0 1 0-5.333-5.333L5.059 21.609c-.392.392-.588.588-.737.814a2.68 2.68 0 0 0-.311.647c-.083.258-.114.533-.175 1.085l-.501 4.513z" />
    </symbol>
    <symbol id="icon-exit" viewBox="0 0 32 32">
      <path
        d="M20.051 23.237h2.499v4.997a3.752 3.752 0 0 1-3.748 3.748H3.748A3.752 3.752 0 0 1 0 28.234V3.748A3.752 3.752 0 0 1 3.748 0h15.054a3.752 3.752 0 0 1 3.748 3.748v4.997h-2.499V3.748a1.25 1.25 0 0 0-1.249-1.249H3.748a1.25 1.25 0 0 0-1.249 1.249v24.486a1.25 1.25 0 0 0 1.249 1.249h15.054a1.25 1.25 0 0 0 1.249-1.249v-4.997zm6.06-13.135-1.767 1.767 2.873 2.874H11.056v2.499h16.161l-2.873 2.873 1.767 1.767L32 15.993l-5.889-5.89z" />
    </symbol>
    <symbol id="icon-minus" viewBox="0 0 320 32">
      <path stroke-width="32" d="M0 16h320" />
    </symbol>
    <symbol id="icon-plus" viewBox="0 0 32 32">
      <path stroke-width="3.2" d="M16 0v32M0 16h32" />
    </symbol>
    <symbol id="icon-arrow-up" viewBox="0 0 32 32">
      <path stroke-width="1.333" d="M7.529 18.667 16 10.196l8.471 8.471" />
    </symbol>
    <symbol id="icon-arrow-down" viewBox="0 0 32 32">
      <path stroke-width="1.333" d="m24.47 10.196-8.471 8.471-8.471-8.471" />
    </symbol>
    <symbol id="icon-calendar" viewBox="0 0 32 32">
      <path
        d="M12 14.667H9.333v2.667H12v-2.667zm5.333 0h-2.667v2.667h2.667v-2.667zm5.334 0H20v2.667h2.667v-2.667zm2.666-9.334H24V2.666h-2.667v2.667H10.666V2.666H7.999v2.667H6.666c-1.48 0-2.653 1.2-2.653 2.667L4 26.667a2.666 2.666 0 0 0 2.667 2.667h18.667c1.467 0 2.667-1.2 2.667-2.667V8c0-1.467-1.2-2.667-2.667-2.667zm0 21.334H6.666V12h18.667v14.667z" />
    </symbol>
    <symbol id="icon-user" viewBox="0 0 32 32">
      <path
        d="M16 20c-4.227 0-7.986 2.041-10.379 5.208-.515.682-.773 1.022-.764 1.483.006.356.23.805.51 1.025.362.284.865.284 1.869.284h17.527c1.005 0 1.507 0 1.869-.284.28-.22.503-.669.51-1.025.008-.461-.249-.801-.764-1.483C23.985 22.041 20.226 20 15.999 20zM16 16a6 6 0 1 0 0-12 6 6 0 0 0 0 12z" />
    </symbol>
    <symbol id="icon-email" viewBox="0 0 32 32">
      <path
        d="M26.667 5.333H5.334A2.663 2.663 0 0 0 2.681 8l-.013 16c0 1.467 1.2 2.667 2.667 2.667h21.333c1.467 0 2.667-1.2 2.667-2.667V8c0-1.467-1.2-2.667-2.667-2.667zm0 5.334L16 17.334 5.333 10.667V8L16 14.667 26.667 8v2.667z" />
    </symbol>
    <symbol id="icon-lock" viewBox="0 0 32 32">
      <path
        d="M24 10.667h-1.333V8c0-3.68-2.987-6.667-6.667-6.667S9.333 4.32 9.333 8v2.667H8a2.675 2.675 0 0 0-2.667 2.667v13.333c0 1.467 1.2 2.667 2.667 2.667h16c1.467 0 2.667-1.2 2.667-2.667V13.334c0-1.467-1.2-2.667-2.667-2.667zm-8 12c-1.467 0-2.667-1.2-2.667-2.667s1.2-2.667 2.667-2.667c1.467 0 2.667 1.2 2.667 2.667s-1.2 2.667-2.667 2.667zm4.133-12h-8.267V8c0-2.28 1.853-4.133 4.133-4.133S20.132 5.72 20.132 8v2.667z" />
    </symbol>
    <symbol id="icon-stats" viewBox="0 0 26 15">
      <path
        d="M25.6667 2.44444C25.6667 3.78889 24.6167 4.88889 23.3333 4.88889C23.1233 4.88889 22.925 4.86445 22.7383 4.80333L18.585 9.14222C18.6433 9.33778 18.6667 9.55778 18.6667 9.77778C18.6667 11.1222 17.6167 12.2222 16.3333 12.2222C15.05 12.2222 14 11.1222 14 9.77778C14 9.55778 14.0233 9.33778 14.0817 9.14222L11.1067 6.02556C10.92 6.08667 10.71 6.11111 10.5 6.11111C10.29 6.11111 10.08 6.08667 9.89333 6.02556L4.585 11.5989C4.64333 11.7944 4.66667 12.0022 4.66667 12.2222C4.66667 13.5667 3.61667 14.6667 2.33333 14.6667C1.05 14.6667 0 13.5667 0 12.2222C0 10.8778 1.05 9.77778 2.33333 9.77778C2.54333 9.77778 2.74167 9.80222 2.92833 9.86333L8.24833 4.30222C8.19 4.10667 8.16667 3.88667 8.16667 3.66667C8.16667 2.32222 9.21667 1.22222 10.5 1.22222C11.7833 1.22222 12.8333 2.32222 12.8333 3.66667C12.8333 3.88667 12.81 4.10667 12.7517 4.30222L15.7267 7.41889C15.9133 7.35778 16.1233 7.33333 16.3333 7.33333C16.5433 7.33333 16.7533 7.35778 16.94 7.41889L21.0817 3.06778C21.0233 2.87222 21 2.66444 21 2.44444C21 1.1 22.05 0 23.3333 0C24.6167 0 25.6667 1.1 25.6667 2.44444Z" />
    </symbol>
    <symbol id="icon-currency" viewBox="0 0 13 23">
      <path
        d="M6.8186 9.82973C3.99411 9.09561 3.08579 8.33661 3.08579 7.15455C3.08579 5.7983 4.3425 4.85265 6.44532 4.85265C8.66012 4.85265 9.48133 5.91028 9.55599 7.46562H12.3058C12.2187 5.32547 10.9122 3.35953 8.31172 2.72495V0H4.57891V2.68762C2.16503 3.21022 0.223968 4.778 0.223968 7.17944C0.223968 10.0537 2.60052 11.4846 6.07204 12.3183C9.18271 13.0648 9.80484 14.1598 9.80484 15.317C9.80484 16.1755 9.19515 17.5442 6.44532 17.5442C3.88212 17.5442 2.87426 16.3995 2.73739 14.9312H0C0.149312 17.6562 2.18991 19.1866 4.57891 19.6968V22.3969H8.31172V19.7217C10.738 19.2613 12.6667 17.8553 12.6667 15.3045C12.6667 11.7708 9.64309 10.5638 6.8186 9.82973Z" />
    </symbol>
  </defs>
</svg>